<svg viewBox="0 0 1682.82 459.96" xmlns="http://www.w3.org/2000/svg" role="img" height="100%" width="100%" class="_1auhjf8yp _1auhjf8155 _1auhjf810n _1auhjf8c7" style="--_1auhjf8154:middle;--_1auhjf8bx:100%"><title>Wayfair</title><rect fill="none" width="1682.56" height="459.96"></rect><path fill="#7b189f" stroke-width="0px" d="m225.34,317.69l-81.07-81.07-27.96,27.96c-2.8,2.8-3.15,4.89-2.1,8.39l13.28,51.72c1.4,5.59,4.19,8.39,9.78,9.78l51.72,13.28c3.49,1.05,5.59.7,8.39-2.1l27.96-27.96Zm13.28,0l27.96,27.96c2.8,2.8,4.89,3.15,8.39,2.1l51.72-13.28c5.59-1.4,8.39-4.19,9.78-9.78l13.28-51.72c1.05-3.49.7-5.59-2.1-8.39l-27.96-27.96-81.07,81.07Zm0-175.43l81.07,81.07,27.96-27.96c2.8-2.8,3.15-4.89,2.1-8.39l-13.28-51.72c-1.4-5.59-4.19-8.39-9.78-9.78l-51.72-13.28c-3.49-1.05-5.59-.7-8.39,2.1l-27.96,27.96Zm-13.28,0l-27.96-27.96c-2.8-2.8-4.89-3.15-8.39-2.1l-51.72,13.28c-5.59,1.4-8.39,4.19-9.78,9.78l-13.28,51.72c-1.05,3.49-.7,5.59,2.1,8.39l27.96,27.96,81.07-81.07Z"></path><path fill="#7b189f" stroke-width="0px" d="m1148.33,178.26h-43v126.46c0,6.58-5.34,11.92-11.92,11.92h-33.51v-138.38h-39.12l-51.89,147.12c-20.97,59.06-41.58,74.43-78.28,74.43-6.99,0-18.17-1.4-29.35-3.49l9.89-32.5h15.97c17.64,0,26.94-5.47,33.02-20.86,6.08-15.39,6.23-17.78,6.29-17.93l-62.2-181.72h39.42c5.23,0,9.85,3.41,11.39,8.42l35.15,114.24,37.04-112.87c2.45-6.99,5.59-9.78,12.58-9.78h60.08v-4.89c0-51.37,23.76-78.28,68.84-78.28,6.99,0,22.8,1.26,32.24,3.36l-9.96,32.63h-13.19c-17.95,0-32.5,14.55-32.5,32.5v14.68h53.59l-10.59,34.95Z"></path><path fill="#7b189f" stroke-width="0px" d="m578.99,264.57l-34.95-113.57c-1.75-5.94-4.19-7.69-10.13-7.69h-33.2c-5.94,0-8.39,1.75-10.13,7.69l-35.29,113.57-31.45-121.26h-49.97l50.32,165.64c1.75,5.94,4.19,7.69,10.13,7.69h34.6c5.94,0,8.39-1.75,10.13-7.69l36.69-116.72,37.04,116.72c1.75,5.94,4.19,7.69,10.13,7.69h31.1c5.94,0,8.39-1.75,10.13-7.69l50.32-165.64h-43.68l-31.8,121.26Z"></path><path fill="#7b189f" stroke-width="0px" d="m1596.81,151.4c0-1.85-1.01-3.69-3.52-3.69h-4.53v11.92h1.68v-4.37h1.51l3.02,4.37h2.01l-3.19-4.53c2.18-.17,3.02-2.01,3.02-3.69Zm-6.38,2.18v-4.36h3.02c1.34,0,1.85,1.18,1.85,2.18s-.5,2.18-2.01,2.18h-2.85Z"></path><path fill="#7b189f" stroke-width="0px" d="m1592.45,143.34c-5.71,0-10.24,4.53-10.24,10.24s4.53,10.24,10.24,10.24,10.24-4.53,10.24-10.24-4.7-10.24-10.24-10.24Zm0,18.97c-4.87,0-8.73-3.86-8.73-8.73-.17-4.87,3.86-8.73,8.73-8.73s8.73,3.86,8.73,8.73-3.86,8.73-8.73,8.73Z"></path><ellipse fill="#7b189f" stroke-width="0px" cx="1399.23" cy="87.75" rx="27.61" ry="26.91"></ellipse><rect fill="#7b189f" stroke-width="0px" x="1376.51" y="143.31" width="45.43" height="173.33"></rect><path fill="#7b189f" stroke-width="0px" d="m798.9,153.1l-1.05,19.94c-10.83-25.86-32.85-33.21-58.71-33.21-47.53,0-77.23,42.98-77.23,90.16s29.7,90.16,77.23,90.16c25.86,0,47.87-7.36,58.71-33.21l1.05,19.94c0,6.64,3.15,9.78,8.74,9.78h36.34v-173.33h-36.34c-5.59,0-8.74,3.15-8.74,9.78Zm-46.85,130.78c-28.66,0-45.03-23.88-45.03-53.9s16.38-53.9,45.03-53.9,45.03,23.88,45.03,53.9-16.38,53.9-45.03,53.9Z"></path><path fill="#7b189f" stroke-width="0px" d="m1293.19,153.1l-1.05,19.94c-10.83-25.86-32.85-33.21-58.71-33.21-47.53,0-77.23,42.98-77.23,90.16s29.7,90.16,77.23,90.16c25.86,0,47.87-7.36,58.71-33.21l1.05,19.94c0,6.64,3.15,9.78,8.74,9.78h36.34v-173.33h-36.34c-5.59,0-8.74,3.15-8.74,9.78Zm-46.85,130.78c-28.66,0-45.03-23.88-45.03-53.9s16.38-53.9,45.03-53.9,45.03,23.88,45.03,53.9-16.38,53.9-45.03,53.9Z"></path><path fill="#7b189f" stroke-width="0px" d="m1560.67,141.57c-26.91,0-46.13,8.26-54.51,40.41l-.7-28.88c0-6.64-3.15-9.78-8.74-9.78h-36.34v173.33h45.43v-86.66c0-30.4,17.47-49.97,47.53-49.97h8.2l11.02-36.26c-4.25-1.8-8.74-2.18-11.88-2.18Z"></path></svg>